<?xml version="1.0" standalone="no"?><!-- Generator: Gravit.io --><svg xmlns="http://www.w3.org/2000/svg" xmlns:xlink="http://www.w3.org/1999/xlink" style="isolation:isolate" viewBox="0 0 867.156 867.156" width="867.156" height="867.156"><defs><clipPath id="_clipPath_IVpZAAHZ27MR5DsPEyrC45Sq0LKCk3ra"><rect width="867.156" height="867.156"/></clipPath></defs><g clip-path="url(#_clipPath_IVpZAAHZ27MR5DsPEyrC45Sq0LKCk3ra)"><circle vector-effect="non-scaling-stroke" cx="434.57799757824205" cy="698" r="97.42200242175792" fill="rgb(235,235,235)"/><circle vector-effect="non-scaling-stroke" cx="434.5779975782421" cy="433.9999999999999" r="97.4220024217579" fill="rgb(244,244,80)"/><circle vector-effect="non-scaling-stroke" cx="434.5779975782422" cy="169.9999999999999" r="97.4220024217579" fill="rgb(235,235,235)"/><defs><filter id="Byder3bQ4RVJYOnQ4EPavbb7KWnMOIVn" x="-200%" y="-200%" width="400%" height="400%" filterUnits="objectBoundingBox" color-interpolation-filters="sRGB"><feGaussianBlur xmlns="http://www.w3.org/2000/svg" in="SourceGraphic" stdDeviation="4.293609062839028"/><feOffset xmlns="http://www.w3.org/2000/svg" dx="0" dy="0" result="pf_100_offsetBlur"/><feFlood xmlns="http://www.w3.org/2000/svg" flood-color="#000000" flood-opacity="0.65"/><feComposite xmlns="http://www.w3.org/2000/svg" in2="pf_100_offsetBlur" operator="in" result="pf_100_dropShadow"/><feBlend xmlns="http://www.w3.org/2000/svg" in="SourceGraphic" in2="pf_100_dropShadow" mode="normal"/></filter></defs><g filter="url(#Byder3bQ4RVJYOnQ4EPavbb7KWnMOIVn)"><path d=" M 247.111 610.652 L 148.501 610.652 C 140.109 610.652 133.336 617.718 133.931 626.09 C 137.452 675.661 234.009 765.428 256.88 786.038 C 259.952 788.806 261.704 792.743 261.704 796.878 L 261.704 805.695 C 261.704 839.639 289.221 867.156 323.165 867.156 L 543.975 867.156 C 577.923 867.156 605.445 839.635 605.445 805.686 L 605.445 796.878 C 605.445 792.743 607.197 788.806 610.269 786.038 C 633.14 765.428 729.696 675.661 733.217 626.09 C 733.813 617.719 727.039 610.652 718.648 610.652 L 620.045 610.652 C 611.986 610.652 605.453 604.119 605.453 596.06 L 605.453 529.957 C 605.453 525.822 607.205 521.885 610.277 519.117 C 633.147 498.507 729.701 408.743 733.225 359.178 C 733.82 350.808 727.046 343.74 718.655 343.74 L 620.045 343.74 C 611.986 343.74 605.453 337.207 605.453 329.148 L 605.453 263.046 C 605.453 258.911 607.205 254.974 610.277 252.206 C 633.148 231.596 729.704 141.829 733.226 92.258 C 733.821 83.887 727.047 76.82 718.656 76.82 L 620.046 76.82 C 611.987 76.82 605.454 70.287 605.454 62.228 L 605.454 61.46 C 605.454 27.518 577.938 0 543.992 0 L 323.164 0 C 289.22 0 261.702 27.517 261.702 61.462 L 261.702 62.23 C 261.702 70.289 255.169 76.822 247.11 76.822 L 148.5 76.822 C 140.108 76.822 133.335 83.889 133.93 92.26 C 137.451 141.831 234.008 231.598 256.879 252.208 C 259.951 254.976 261.703 258.913 261.703 263.048 L 261.703 329.15 C 261.703 337.209 255.17 343.742 247.111 343.742 L 148.501 343.742 C 140.109 343.742 133.336 350.809 133.931 359.18 C 137.455 408.746 234.009 498.509 256.879 519.119 C 259.951 521.887 261.703 525.824 261.703 529.959 L 261.703 596.062 C 261.702 604.119 255.169 610.652 247.111 610.652 Z  M 434.103 74.082 C 487.316 74.082 530.453 117.219 530.453 170.432 C 530.453 223.645 487.316 266.782 434.103 266.782 C 380.89 266.782 337.752 223.645 337.752 170.432 C 337.752 117.219 380.89 74.082 434.103 74.082 Z  M 434.103 337.75 C 487.316 337.75 530.453 380.887 530.453 434.101 C 530.453 487.314 487.316 530.451 434.103 530.451 C 380.89 530.451 337.752 487.314 337.752 434.1 C 337.752 380.887 380.89 337.75 434.103 337.75 Z  M 434.103 601.408 C 487.316 601.408 530.453 644.545 530.453 697.758 C 530.453 750.971 487.316 794.109 434.103 794.109 C 380.89 794.109 337.752 750.971 337.752 697.758 C 337.752 644.545 380.89 601.408 434.103 601.408 Z " fill="rgb(57,59,58)"/></g></g></svg>